<svg xmlns="http://www.w3.org/2000/svg" viewBox="0 0 32 32">
  <defs>
    <linearGradient id="bg" x1="0%" y1="0%" x2="100%" y2="100%">
      <stop offset="0%" stop-color="#0b1020" />
      <stop offset="100%" stop-color="#1b1230" />
    </linearGradient>
    <linearGradient id="accent" x1="0%" y1="0%" x2="100%" y2="100%">
      <stop offset="0%" stop-color="#8b5cf6" />
      <stop offset="100%" stop-color="#ec4899" />
    </linearGradient>
  </defs>

  <rect width="32" height="32" rx="7" fill="url(#bg)" />
  <path
    d="M10 8.8c0-3.1 2.2-5.2 5.4-5.2 1.9 0 3.5.6 4.8 1.8L18.3 7.6c-.8-.8-1.7-1.2-2.8-1.2-1.4 0-2.4.8-2.4 2 0 1.1.8 1.8 2.3 1.8h1.6v2.7h-1.6c-1.6 0-2.5.7-2.5 1.9 0 1.3 1 2.1 2.6 2.1 1.4 0 2.5-.5 3.6-1.5l1.8 2c-1.4 1.5-3.2 2.3-5.7 2.3-3.5 0-5.8-2.1-5.8-5.2 0-1.8.8-3.1 2.2-3.9-1.1-.7-1.6-1.8-1.6-3.3Z"
    fill="#fff"
  />
  <path d="M22.4 6.2 23.6 8.8 26.5 7.7 25 10.3l2.6 2-3.1.2-.7 3-1.9-2.4-2.9 1.1 1.5-2.5-2.6-2 3.1-.3Z" fill="url(#accent)" />
</svg>
