<svg xmlns="http://www.w3.org/2000/svg" viewBox="0 0 32 32">
  <defs>
    <linearGradient id="bg" x1="0%" y1="0%" x2="100%" y2="100%">
      <stop offset="0%" stop-color="#0b0f1a" />
      <stop offset="100%" stop-color="#140b22" />
    </linearGradient>
    <linearGradient id="star" x1="14%" y1="12%" x2="86%" y2="88%">
      <stop offset="0%" stop-color="#f0abfc" />
      <stop offset="28%" stop-color="#c084fc" />
      <stop offset="72%" stop-color="#8b5cf6" />
      <stop offset="100%" stop-color="#6d28d9" />
    </linearGradient>
    <linearGradient id="steel" x1="18%" y1="16%" x2="82%" y2="84%">
      <stop offset="0%" stop-color="#ffffff" />
      <stop offset="24%" stop-color="#d4d4d8" />
      <stop offset="100%" stop-color="#71717a" />
    </linearGradient>
    <radialGradient id="swirl" cx="35%" cy="28%" r="72%">
      <stop offset="0%" stop-color="#f5d0fe" />
      <stop offset="36%" stop-color="#d8b4fe" />
      <stop offset="72%" stop-color="#8b5cf6" />
      <stop offset="100%" stop-color="#4c1d95" />
    </radialGradient>
  </defs>

  <rect width="32" height="32" rx="7" fill="url(#bg)" />
  <g transform="translate(16 16)">
    <path d="M0-11 2.4-5.7 8-8 5.7-2.4 11 0 5.7 2.4 8 8 2.4 5.7 0 11-2.4 5.7-8 8-5.7 2.4-11 0-5.7-2.4-8-8-2.4-5.7Z" fill="url(#star)"/>
    <path d="M0-8.7 1.7-4.4 6.2-6.2 4.4-1.7 8.7 0 4.4 1.7 6.2 6.2 1.7 4.4 0 8.7-1.7 4.4-6.2 6.2-4.4 1.7-8.7 0-4.4-1.7-6.2-6.2-1.7-4.4Z" fill="#10111a"/>
    <path d="M0-11 2.4-5.7-1.1-3.5Z" fill="url(#steel)"/>
    <path d="M11 0 5.7 2.4 3.5-1.1Z" fill="url(#steel)"/>
    <path d="M0 11-2.4 5.7 1.1 3.5Z" fill="url(#steel)" opacity="0.8"/>
    <path d="M-11 0-5.7-2.4-3.5 1.1Z" fill="url(#steel)" opacity="0.8"/>
    <circle r="6.1" fill="#201132" />
    <g fill="url(#swirl)">
      <path d="M.9-5c-1.9-.5-3.7.4-4.6 1.9 1.5-.8 3.1-.9 4.4-.2 1 .6 1.8 1.7 2 3 .6-1.8-.1-3.9-1.8-4.7Z"/>
      <path d="M4.7-2c-.5-1.8-2-3.2-3.7-3.2 1.1 1 1.6 2.6 1.3 4-.3 1.2-1.2 2-2.3 2.5 1.8.2 3.8-1 4.7-3.3Z"/>
      <path d="M4 2.7c.5-1.8-.4-3.7-1.9-4.6.8 1.5.9 3.1.2 4.4-.6 1-1.7 1.8-3 2 1.8.6 3.9-.1 4.7-1.8Z"/>
      <path d="M-1 5c1.8-.5 3.2-2 3.2-3.7-1 1.1-2.6 1.6-4 1.3-1.2-.3-2-1.2-2.5-2.3-.2 1.8 1 3.8 3.3 4.7Z"/>
      <path d="M-4.7 2c.5 1.8 2 3.2 3.7 3.2-1.1-1-1.6-2.6-1.3-4 .3-1.2 1.2-2 2.3-2.5-1.8-.2-3.8 1-4.7 3.3Z"/>
    </g>
    <circle r="1.3" fill="#130916" />
  </g>
</svg>
