<svg xmlns="http://www.w3.org/2000/svg" viewBox="0 0 512 512">
  <defs>
    <linearGradient id="bg" x1="0%" y1="0%" x2="100%" y2="100%">
      <stop offset="0%" stop-color="#0b1020" />
      <stop offset="100%" stop-color="#1b1230" />
    </linearGradient>
    <linearGradient id="glow" x1="15%" y1="10%" x2="85%" y2="90%">
      <stop offset="0%" stop-color="#8b5cf6" />
      <stop offset="100%" stop-color="#ec4899" />
    </linearGradient>
    <linearGradient id="cream" x1="0%" y1="0%" x2="100%" y2="100%">
      <stop offset="0%" stop-color="#ffffff" />
      <stop offset="100%" stop-color="#e9d5ff" />
    </linearGradient>
  </defs>

  <rect width="512" height="512" rx="112" fill="url(#bg)" />
  <circle cx="256" cy="230" r="170" fill="url(#glow)" opacity="0.18" />

  <path
    d="M168 210c0-56 39-96 96-96 34 0 61 11 84 33l-33 37c-15-15-31-22-50-22-26 0-43 15-43 37 0 21 14 33 41 33h28v48h-28c-29 0-45 13-45 35 0 24 19 39 49 39 26 0 47-9 66-28l33 35c-25 27-58 41-103 41-63 0-104-38-104-93 0-31 14-55 39-69-20-13-30-33-30-60Z"
    fill="url(#cream)"
  />

  <path
    d="M177 292h158l-20 107c-4 20-21 35-42 35h-34c-21 0-38-15-42-35Z"
    fill="url(#glow)"
  />

  <path
    d="M216 319h80l-10 61c-2 11-12 20-24 20h-12c-12 0-22-9-24-20Z"
    fill="#fff"
    opacity="0.2"
  />

  <g transform="translate(352 118) scale(0.92)">
    <path
      d="M62 0 77 34l37-15-20 34 32 25-40 3-9 39-25-31-37 14 21-33-33-25 40-4Z"
      fill="url(#glow)"
    />
    <circle cx="62" cy="58" r="10" fill="#0b1020" />
  </g>
</svg>
