<svg xmlns="http://www.w3.org/2000/svg" viewBox="0 0 512 512">
  <defs>
    <linearGradient id="bg" x1="0%" y1="0%" x2="100%" y2="100%">
      <stop offset="0%" stop-color="#0b0f1a" />
      <stop offset="100%" stop-color="#140b22" />
    </linearGradient>
    <linearGradient id="star" x1="14%" y1="12%" x2="86%" y2="88%">
      <stop offset="0%" stop-color="#f0abfc" />
      <stop offset="28%" stop-color="#c084fc" />
      <stop offset="72%" stop-color="#8b5cf6" />
      <stop offset="100%" stop-color="#6d28d9" />
    </linearGradient>
    <linearGradient id="steel" x1="18%" y1="16%" x2="82%" y2="84%">
      <stop offset="0%" stop-color="#ffffff" />
      <stop offset="24%" stop-color="#d4d4d8" />
      <stop offset="100%" stop-color="#71717a" />
    </linearGradient>
    <radialGradient id="swirl" cx="35%" cy="28%" r="72%">
      <stop offset="0%" stop-color="#f5d0fe" />
      <stop offset="36%" stop-color="#d8b4fe" />
      <stop offset="72%" stop-color="#8b5cf6" />
      <stop offset="100%" stop-color="#4c1d95" />
    </radialGradient>
  </defs>

  <rect width="512" height="512" rx="112" fill="url(#bg)" />
  <rect x="8" y="8" width="496" height="496" rx="104" fill="none" stroke="#ffffff" stroke-opacity="0.08" stroke-width="10" />

  <g transform="translate(256 256)">
    <path
      d="M0-178 38-92 128-128 92-38 178 0 92 38 128 128 38 92 0 178-38 92-128 128-92 38-178 0-92-38-128-128-38-92Z"
      fill="url(#star)"
    />
    <path
      d="M0-142 27-72 102-102 72-27 142 0 72 27 102 102 27 72 0 142-27 72-102 102-72 27-142 0-72-27-102-102-27-72Z"
      fill="#10111a"
    />

    <path d="M0-178 38-92-18-58Z" fill="url(#steel)" opacity="0.92" />
    <path d="M178 0 92 38 58-18Z" fill="url(#steel)" opacity="0.92" />
    <path d="M0 178-38 92 18 58Z" fill="url(#steel)" opacity="0.82" />
    <path d="M-178 0-92-38-58 18Z" fill="url(#steel)" opacity="0.82" />

    <circle r="94" fill="#161022" />
    <circle r="86" fill="#201132" />

    <g fill="url(#swirl)">
      <path d="M13-76c-29-8-57 6-70 29 22-13 48-14 68-3 17 9 27 25 30 45 9-27-2-61-28-71Z"/>
      <path d="M71-34c-7-28-31-48-57-48 18 15 25 41 20 62-5 17-18 31-34 39 27 2 59-14 71-53Z"/>
      <path d="M63 36c8-28-6-57-29-70 13 22 14 48 3 68-9 17-25 27-45 30 27 9 61-2 71-28Z"/>
      <path d="M21 76c28-7 48-31 48-57-15 18-41 25-62 20-17-5-31-18-39-34-2 27 14 59 53 71Z"/>
      <path d="M-35 63c28 8 57-6 70-29-22 13-48 14-68 3-17-9-27-25-30-45-9 27 2 61 28 71Z"/>
      <path d="M-76 21c7 28 31 48 57 48-18-15-25-41-20-62 5-17 18-31 34-39-27-2-59 14-71 53Z"/>
      <path d="M-63-35c-8 28 6 57 29 70-13-22-14-48-3-68 9-17 25-27 45-30-27-9-61 2-71 28Z"/>
      <path d="M-21-76c-28 7-48 31-48 57 15-18 41-25 62-20 17 5 31 18 39 34 2-27-14-59-53-71Z"/>
    </g>

    <circle r="26" fill="#291142" />
    <circle r="15" fill="#130916" />
  </g>
</svg>
